<svg width="80" height="30" viewBox="0 0 80 30" fill="none" xmlns="http://www.w3.org/2000/svg">
<rect width="80" height="30" rx="8" fill="#37A7E1"/>
<path d="M14.76 21.256C11.256 21.256 9.736 18.92 9.736 16.28C9.736 13.224 11.752 11.224 14.648 11.224C15.8 11.224 16.616 11.544 17.016 11.736C17.432 11.944 17.496 12.216 17.496 12.456C17.496 12.76 17.336 13.528 16.648 13.528C16.488 13.528 16.36 13.48 15.944 13.352C15.432 13.208 15.272 13.16 14.808 13.16C13 13.16 11.848 14.376 11.848 16.232C11.848 17.736 12.6 19.32 14.856 19.32C15.576 19.32 16.008 19.192 16.392 19.064C16.616 19 16.776 18.968 16.92 18.968C17.4 18.968 17.72 19.432 17.72 19.96C17.72 20.216 17.64 20.552 17.304 20.744C16.728 21.064 15.624 21.256 14.76 21.256ZM18.9391 16.232C18.9391 13.144 21.0831 11.224 23.6111 11.224C26.1551 11.224 28.2991 13.16 28.2991 16.232C28.2991 19.304 26.1711 21.256 23.6111 21.256C21.0671 21.256 18.9391 19.32 18.9391 16.232ZM21.0511 16.232C21.0511 18.68 22.6031 19.32 23.6111 19.32C24.6671 19.32 26.1871 18.648 26.1871 16.232C26.1871 13.832 24.6671 13.16 23.6111 13.16C22.6191 13.16 21.0511 13.784 21.0511 16.232ZM34.7913 21.256C31.2873 21.256 29.7673 18.92 29.7673 16.28C29.7673 13.224 31.7833 11.224 34.6793 11.224C35.8313 11.224 36.6473 11.544 37.0473 11.736C37.4633 11.944 37.5273 12.216 37.5273 12.456C37.5273 12.76 37.3673 13.528 36.6793 13.528C36.5193 13.528 36.3913 13.48 35.9753 13.352C35.4633 13.208 35.3033 13.16 34.8393 13.16C33.0312 13.16 31.8793 14.376 31.8793 16.232C31.8793 17.736 32.6313 19.32 34.8873 19.32C35.6073 19.32 36.0393 19.192 36.4233 19.064C36.6473 19 36.8073 18.968 36.9513 18.968C37.4313 18.968 37.7513 19.432 37.7513 19.96C37.7513 20.216 37.6713 20.552 37.3353 20.744C36.7593 21.064 35.6553 21.256 34.7913 21.256ZM41.5144 15.224L44.6344 11.848C45.1304 11.304 45.2104 11.224 45.5464 11.224C45.9304 11.224 46.5864 11.496 46.5864 12.088C46.5864 12.376 46.3464 12.728 46.1704 12.92L43.6744 15.544L46.7944 19.352C47.0024 19.608 47.2584 19.96 47.2584 20.264C47.2584 20.824 46.6504 21.256 46.0904 21.256C45.6744 21.256 45.6104 21.192 45.0504 20.456L41.5144 15.8V20.264C41.5144 20.968 41.1464 21.256 40.4744 21.256C39.8984 21.256 39.4024 21.08 39.4024 20.264V8.616C39.4024 7.928 39.7704 7.624 40.4424 7.624C40.9704 7.624 41.5144 7.784 41.5144 8.616V15.224ZM50.9675 20.008V24.264C50.9675 24.952 50.5995 25.256 49.9275 25.256C49.2555 25.256 48.8555 25.016 48.8555 24.264V12.184C48.8555 11.544 49.1595 11.224 49.8635 11.224C50.4715 11.224 50.9035 11.432 50.9035 12.184V12.6C51.1595 12.248 51.9755 11.224 53.7675 11.224C56.2955 11.224 57.9595 13.336 57.9595 16.248C57.9595 19.144 56.2795 21.256 53.7835 21.256C52.2795 21.256 51.6235 20.632 50.9675 20.008ZM50.9515 16.248C50.9515 18.856 52.5675 19.32 53.3835 19.32C54.7435 19.32 55.8475 18.28 55.8475 16.248C55.8475 13.976 54.5835 13.16 53.3835 13.16C52.5355 13.16 50.9515 13.64 50.9515 16.248ZM61.1679 7.784C61.8879 7.784 62.4479 8.376 62.4639 9.08C62.4639 9.768 61.9039 10.376 61.1679 10.376C60.4639 10.376 59.8719 9.8 59.8719 9.08C59.8719 8.344 60.4799 7.784 61.1679 7.784ZM60.0959 20.264V12.248C60.0959 11.656 60.3679 11.256 61.1519 11.256C61.7279 11.256 62.2399 11.432 62.2399 12.248V20.264C62.2399 20.968 61.8559 21.256 61.1839 21.256C60.5119 21.256 60.0959 21.016 60.0959 20.264ZM68.1043 13.416V18.024C68.1043 19.016 68.3123 19.32 69.3363 19.32C69.4163 19.32 69.7683 19.304 69.8483 19.304C70.4403 19.304 70.7283 19.64 70.7283 20.216C70.7283 21.256 69.9283 21.256 68.7923 21.256C65.9763 21.256 65.9763 19.608 65.9763 18.168V13.416H65.0643C64.8403 13.416 64.0723 13.416 64.0723 12.456C64.0723 11.512 64.7763 11.48 65.0643 11.48H65.9763V9.464C65.9763 8.872 66.2483 8.472 67.0163 8.472C67.5603 8.472 68.1043 8.616 68.1043 9.464V11.48H69.8963C70.1043 11.48 70.8883 11.48 70.8883 12.44C70.8883 13.384 70.1843 13.416 69.8963 13.416H68.1043Z" fill="white"/>
</svg>
