<svg width="40" height="38" viewBox="0 0 40 38" fill="none" xmlns="http://www.w3.org/2000/svg">
<path d="M35.2676 1.01243C32.6543 0.798715 29.5318 1.64577 26.1658 9.53597C24.2497 14.0275 24.115 18.4678 25.7655 22.7378C24.4674 23.1245 23.3734 23.0106 22.5101 22.3999C21.0431 21.3608 20.3941 19.0325 20.4121 17.3098C20.4147 17.0456 20.4233 16.7963 20.4353 16.5635C21.3081 14.7434 21.8302 12.8747 22.3652 10.9608C23.1591 8.11552 22.7836 5.17733 21.3586 3.10096C20.5141 1.86731 19.3781 1.10626 18.2447 1.01243C15.6315 0.797846 12.509 1.64577 9.143 9.53597C7.2268 14.0275 7.0922 18.4678 8.74261 22.7378C7.44457 23.1245 6.35144 23.0106 5.48722 22.3999C4.02028 21.3617 3.37126 19.0334 3.38927 17.3098C3.4107 15.2204 3.77851 14.0866 3.78279 14.0736C3.90197 13.7061 3.79565 13.3091 3.50501 13.0371C3.16207 12.7192 2.63136 12.6462 2.15467 12.8512C1.38905 13.1822 0.886637 14.1109 0.889209 14.1109C0.835195 14.1917 -0.363392 16.0431 0.110727 19.3974C0.620855 23.0063 3.1715 25.7881 6.31286 26.1634C8.69631 26.4527 10.3579 25.6578 11.0712 25.2165C11.3473 25.3659 11.8437 25.6361 12.0263 25.7516C12.4198 25.9949 13.074 26.2546 13.7299 26.2546H13.7307C14.1886 26.2529 14.5855 26.1287 14.913 25.8863C15.394 25.5283 15.4429 25.0818 15.43 24.8481C15.388 24.1114 14.6515 23.6101 14.3892 23.4555C15.6092 22.6023 16.6183 21.7362 17.4637 20.857C18.3682 23.7369 20.6325 25.842 23.3357 26.1643C25.72 26.4527 27.3807 25.6587 28.094 25.2173C28.3701 25.3668 28.8665 25.6369 29.0491 25.7525C29.4427 25.9957 30.0968 26.2555 30.7527 26.2555H30.7536C31.2114 26.2538 31.6092 26.1295 31.935 25.8872C32.416 25.5292 32.4657 25.0835 32.452 24.849C32.4108 24.1114 31.6735 23.611 31.412 23.4563C36.9849 19.5616 38.1526 15.3819 39.388 10.9616C40.1819 8.11639 39.8064 5.1782 38.3815 3.10183C37.5361 1.86818 36.401 1.10713 35.2667 1.01417L35.2676 1.01243ZM35.7477 11.6054C34.3571 16.4992 31.9016 19.0482 29.9151 20.724C29.6793 20.9282 29.3895 21.1237 29.0543 21.3061C28.7559 20.4843 27.0138 15.0944 30.1046 8.90611C31.6821 5.74812 33.2176 4.0792 34.5448 4.0792C34.7343 4.0792 34.8809 4.11222 35.0018 4.13915C35.1484 4.17129 35.3902 4.352 35.6319 4.76206C36.3033 5.90536 36.6865 8.30318 35.7485 11.6054H35.7477ZM18.7248 11.6054C17.3342 16.5001 14.8787 19.0482 12.8922 20.724C12.6573 20.9282 12.3675 21.1237 12.0314 21.3061C11.7331 20.4843 9.99092 15.0944 13.0817 8.90611C14.6592 5.74812 16.1948 4.0792 17.522 4.0792C17.7114 4.0792 17.8649 4.11395 17.9789 4.13915C18.1247 4.17129 18.3673 4.352 18.6091 4.76206C19.2804 5.90536 19.6636 8.30405 18.7248 11.6054Z" fill="#6EC3EE"/>
<path d="M35.0665 29.7318L33.4496 29.6484C33.0886 29.631 32.7834 29.856 32.6574 30.2235C32.1601 31.6666 30.8355 33.4597 27.3486 33.8029C23.3653 34.1956 21.6497 33.0227 20.9827 32.2886C20.813 32.1027 20.5712 32.0149 20.3208 32.048C20.0662 32.0818 19.8424 32.24 19.7233 32.4693L19.1034 33.6639C18.9559 33.9488 18.9885 34.2894 19.1857 34.5309L19.2337 34.59C19.7601 35.239 20.855 36.589 24.6565 36.993C24.7551 37.0034 25.1426 37.0147 25.6502 37.0147C26.4252 37.0147 27.4781 36.9895 28.2034 36.9009C33.0758 36.3006 35.322 33.2929 35.7987 30.6779C35.8407 30.4494 35.7833 30.2148 35.6427 30.0333C35.5029 29.8543 35.2937 29.744 35.0674 29.7327L35.0665 29.7318Z" fill="#6EC3EE"/>
</svg>
