<svg width="160" height="40" viewBox="0 0 160 40" fill="none" xmlns="http://www.w3.org/2000/svg">
<path d="M40.2676 2.01243C37.6543 1.79872 34.5318 2.64577 31.1658 10.536C29.2497 15.0275 29.115 19.4678 30.7655 23.7378C29.4674 24.1245 28.3734 24.0106 27.5101 23.3999C26.0431 22.3608 25.3941 20.0325 25.4121 18.3098C25.4147 18.0456 25.4233 17.7963 25.4353 17.5635C26.3081 15.7434 26.8302 13.8747 27.3652 11.9608C28.1591 9.11552 27.7836 6.17733 26.3586 4.10096C25.5141 2.86731 24.3781 2.10626 23.2447 2.01243C20.6315 1.79785 17.509 2.64577 14.143 10.536C12.2268 15.0275 12.0922 19.4678 13.7426 23.7378C12.4446 24.1245 11.3514 24.0106 10.4872 23.3999C9.02028 22.3617 8.37126 20.0334 8.38927 18.3098C8.4107 16.2204 8.77851 15.0866 8.78279 15.0736C8.90197 14.7061 8.79565 14.3091 8.50501 14.0371C8.16207 13.7192 7.63136 13.6462 7.15467 13.8512C6.38905 14.1822 5.88664 15.1109 5.88921 15.1109C5.8352 15.1917 4.63661 17.0431 5.11073 20.3974C5.62086 24.0063 8.1715 26.7881 11.3129 27.1634C13.6963 27.4527 15.3579 26.6578 16.0712 26.2165C16.3473 26.3659 16.8437 26.6361 17.0263 26.7516C17.4198 26.9949 18.074 27.2546 18.7299 27.2546H18.7307C19.1886 27.2529 19.5855 27.1287 19.913 26.8863C20.394 26.5283 20.4429 26.0818 20.43 25.8481C20.388 25.1114 19.6515 24.6101 19.3892 24.4555C20.6092 23.6023 21.6183 22.7362 22.4637 21.857C23.3682 24.7369 25.6325 26.842 28.3357 27.1643C30.72 27.4527 32.3807 26.6587 33.094 26.2173C33.3701 26.3668 33.8665 26.6369 34.0491 26.7525C34.4427 26.9957 35.0968 27.2555 35.7527 27.2555H35.7536C36.2114 27.2538 36.6092 27.1295 36.935 26.8872C37.416 26.5292 37.4657 26.0835 37.452 25.849C37.4108 25.1114 36.6735 24.611 36.412 24.4563C41.9849 20.5616 43.1526 16.3819 44.388 11.9616C45.1819 9.11639 44.8064 6.1782 43.3815 4.10183C42.5361 2.86818 41.401 2.10713 40.2667 2.01417L40.2676 2.01243ZM40.7477 12.6054C39.3571 17.4992 36.9016 20.0482 34.9151 21.724C34.6793 21.9282 34.3895 22.1237 34.0543 22.3061C33.7559 21.4843 32.0138 16.0944 35.1046 9.90611C36.6821 6.74812 38.2176 5.0792 39.5448 5.0792C39.7343 5.0792 39.8809 5.11222 40.0018 5.13915C40.1484 5.17129 40.3902 5.352 40.6319 5.76206C41.3033 6.90536 41.6865 9.30318 40.7485 12.6054H40.7477ZM23.7248 12.6054C22.3342 17.5001 19.8787 20.0482 17.8922 21.724C17.6573 21.9282 17.3675 22.1237 17.0314 22.3061C16.7331 21.4843 14.9909 16.0944 18.0817 9.90611C19.6592 6.74812 21.1948 5.0792 22.522 5.0792C22.7114 5.0792 22.8649 5.11395 22.9789 5.13915C23.1247 5.17129 23.3673 5.352 23.6091 5.76206C24.2804 6.90536 24.6636 9.30405 23.7248 12.6054Z" fill="#6EC3EE"/>
<path d="M40.0665 30.7318L38.4496 30.6484C38.0886 30.631 37.7834 30.856 37.6574 31.2235C37.1601 32.6666 35.8355 34.4597 32.3486 34.8029C28.3653 35.1956 26.6497 34.0227 25.9827 33.2886C25.813 33.1027 25.5712 33.0149 25.3208 33.048C25.0662 33.0818 24.8424 33.24 24.7233 33.4693L24.1034 34.6639C23.9559 34.9488 23.9885 35.2894 24.1857 35.5309L24.2337 35.59C24.7601 36.239 25.855 37.589 29.6565 37.993C29.7551 38.0034 30.1426 38.0147 30.6502 38.0147C31.4252 38.0147 32.4781 37.9895 33.2034 37.9009C38.0758 37.3006 40.322 34.2929 40.7987 31.6779C40.8407 31.4494 40.7833 31.2148 40.6427 31.0333C40.5029 30.8543 40.2937 30.744 40.0674 30.7327L40.0665 30.7318Z" fill="#6EC3EE"/>
<path d="M55.0652 18.7665C56.4035 19.1557 57.7341 19.6127 59.0193 20.1261C60.3311 20.65 61.6351 21.1912 62.8723 21.7221C63.0755 21.8211 63.2735 21.9167 63.4638 22.0053C63.6422 22.0895 63.8145 22.1782 63.9808 22.2702L64.0288 22.2937C64.3701 22.4397 64.7053 22.5135 65.026 22.5135C65.6107 22.5135 66.1045 22.2815 66.4535 21.8437L67.0982 21.0401C67.4823 20.5509 67.4763 20.1079 67.4034 19.8212C67.3005 19.4163 67.0082 19.0949 66.5083 18.8551C65.2223 18.3208 63.9671 17.8126 62.7437 17.3287C61.5296 16.8482 60.2316 16.373 58.8693 15.9091C58.5409 15.8109 58.2254 15.7162 57.9227 15.6276C57.6312 15.5416 57.3509 15.4512 57.0499 15.3453C56.683 15.241 56.3178 15.2358 55.9645 15.3279C55.595 15.4243 55.2958 15.6059 55.0875 15.8518L54.3321 16.6797C53.7937 17.2705 53.9026 17.7665 54.0149 18.0072C54.1847 18.3738 54.5422 18.631 55.0634 18.7665H55.0652Z" fill="#6EC3EE"/>
<path d="M68.2097 30.4028C68.142 30.1257 67.9542 29.7356 67.4381 29.4402C65.365 28.3117 63.1813 27.283 60.9462 26.383C58.7239 25.4873 56.4202 24.6524 54.1113 23.9052C53.7358 23.7732 53.3602 23.7532 52.9942 23.8479C52.6392 23.9409 52.3366 24.112 52.0768 24.3752L51.3797 25.1528C50.7942 25.7357 50.891 26.2553 51.0008 26.5124C51.1663 26.9016 51.5332 27.1822 52.0648 27.3369C54.2519 28.1162 56.4176 28.9823 58.5027 29.9102C60.5955 30.8441 62.672 31.8484 64.6757 32.8953C65.0297 33.0942 65.3804 33.195 65.7173 33.195C66.2815 33.195 66.7513 32.97 67.0591 32.566L67.8736 31.6069C68.1951 31.2611 68.3143 30.8337 68.2088 30.4028H68.2097Z" fill="#6EC3EE"/>
<path d="M55.0626 10.1224C55.8685 10.3796 56.6487 10.6454 57.3826 10.9139C58.1362 11.1893 58.9018 11.4742 59.6803 11.7696C60.4065 12.045 61.1455 12.3334 61.8966 12.6384C62.6313 12.9364 63.3404 13.2622 64.0031 13.6079L64.0391 13.6244C64.3803 13.7704 64.7156 13.8442 65.0379 13.8442C65.5969 13.8442 66.0779 13.6123 66.4277 13.1744L67.0725 12.3708C67.4668 11.8686 67.442 11.423 67.3502 11.1345C67.2302 10.761 66.9533 10.4586 66.5023 10.2223C65.8079 9.90001 65.0645 9.57422 64.2938 9.25277C63.5204 8.93046 62.7068 8.61336 61.8734 8.31189C61.0521 8.01477 60.2299 7.72808 59.4085 7.45094C58.5975 7.17727 57.8061 6.93489 57.0619 6.73333C56.6941 6.62908 56.334 6.62473 55.9911 6.71769C55.6481 6.81152 55.3635 6.97398 55.1372 7.21029L54.3947 8.0252C53.852 8.57947 53.9369 9.07033 54.0363 9.31359C54.1864 9.68282 54.5327 9.95561 55.0634 10.1215L55.0626 10.1224Z" fill="#6EC3EE"/>
<path d="M78.4034 19.4711C78.6941 19.7343 79.067 19.8568 79.506 19.8238C79.5823 19.8142 79.7752 19.8056 79.9673 19.796C80.1645 19.7864 80.3616 19.776 80.4345 19.7682L92.6999 19.147C92.8465 19.1401 93.1029 19.1479 93.1877 19.2669C93.2623 19.3712 93.1466 19.637 93.1088 19.7178C92.5053 21.0131 91.7662 22.1938 90.9123 23.2268C90.0532 24.2667 89.081 25.2093 88.0239 26.0294C86.9624 26.8522 85.8007 27.575 84.5713 28.1762C83.3393 28.78 82.0421 29.3004 80.714 29.7235C80.3239 29.8112 80.1653 30.0336 80.101 30.2074C80.0341 30.3889 80.0118 30.6809 80.2853 31.0388L80.3239 31.084C80.3239 31.084 80.3385 31.1005 80.3599 31.137C80.4088 31.2247 80.4688 31.309 80.5383 31.3872L81.2516 32.6625C81.4085 33.0318 81.7171 33.2368 82.0935 33.2368C82.2178 33.2368 82.349 33.2151 82.4853 33.169C84.3441 32.5096 86.0991 31.6938 87.7006 30.7451C89.3082 29.793 90.7803 28.6679 92.0757 27.3995C93.3712 26.1311 94.5038 24.6759 95.4426 23.0721C96.3805 21.4684 97.1273 19.6587 97.664 17.691C97.754 17.3573 97.7292 17.0177 97.592 16.7092C97.5474 16.6102 97.4437 16.3774 96.3702 15.632L96.3239 15.6033C96.0127 15.4313 95.6904 15.3713 95.3663 15.4235C94.0099 15.5199 92.6382 15.6042 91.2878 15.6728C89.9435 15.7414 88.5631 15.7962 87.1879 15.8353C84.5284 15.8961 79.4563 16.0116 79.2942 16.0125C78.839 16.0125 78.4677 16.1541 78.1908 16.4347C77.9868 16.6415 77.7604 17.0151 77.8333 17.5884L77.8959 18.485C77.9533 18.8881 78.1239 19.2209 78.4034 19.4728V19.4711Z" fill="#6EC3EE"/>
<path d="M82.1645 12.0829H82.6481C82.823 12.0829 83.0039 12.0734 83.1891 12.0534H91.5363C92.2762 12.0925 92.9467 12.0725 93.6729 12.1133C94.1221 12.1133 94.4942 11.9743 94.7797 11.7015C94.982 11.5087 95.223 11.1559 95.223 10.5739V9.92316C95.223 9.46184 95.0772 9.08132 94.7891 8.79028C94.5859 8.58612 94.2233 8.35242 93.6651 8.38369L91.5166 8.41323C90.937 8.43321 90.3472 8.44277 89.7479 8.44277H86.0149C85.4062 8.44277 84.8215 8.43321 84.2505 8.41323L82.2546 8.38543C81.6767 8.34981 81.3072 8.58612 81.1048 8.79115C80.8176 9.08132 80.6719 9.46184 80.6719 9.92316V10.6034C80.6719 11.0717 80.8168 11.4461 81.1006 11.7146C81.2969 11.9022 81.6467 12.1185 82.1645 12.0821V12.0829Z" fill="#6EC3EE"/>
<path d="M124.496 22.2178L124.27 20.9059C124.254 20.819 124.241 20.7461 124.232 20.6792C124.222 20.6045 124.208 20.5245 124.188 20.4394C124.138 20.0754 123.981 19.8434 123.72 19.7478C123.541 19.6827 123.259 19.667 122.946 19.9676C122.603 20.2934 122.219 20.6279 121.806 20.9606C121.391 21.2951 120.93 21.6418 120.435 21.991C118.706 23.2186 116.894 24.368 115.049 25.4079C113.203 26.4496 111.28 27.4017 109.318 28.2444C109.219 28.2905 109.127 28.3131 109.036 28.3131C108.91 28.3131 108.78 28.3131 108.78 27.8101V21.9858L108.836 10.5128L108.834 9.63185C108.87 9.08886 108.656 8.75265 108.469 8.56412C108.214 8.30957 107.869 8.17578 107.472 8.17578H106.104C105.733 8.17578 105.503 8.33737 105.375 8.4729C105.239 8.61625 105.087 8.87254 105.132 9.2409L105.187 11.6066V27.6241L105.135 31.0619C105.077 31.5788 105.277 32.0453 105.69 32.365L106.295 32.8602C106.561 33.0965 106.864 33.2147 107.167 33.2147C107.333 33.2147 107.5 33.1791 107.661 33.1078C108.149 32.9497 108.66 32.7603 109.178 32.5466C109.687 32.3364 110.222 32.0992 110.761 31.8429C111.875 31.3321 113.035 30.7778 114.21 30.1948C115.384 29.6128 116.563 28.9864 117.713 28.3322C118.867 27.6763 120.001 26.9717 121.084 26.2393C122.173 25.5043 123.211 24.7277 124.181 23.9214C124.543 23.6035 124.693 23.1543 124.598 22.6183L124.495 22.2152L124.496 22.2178Z" fill="#6EC3EE"/>
<path d="M138.285 22.5631C138.585 20.5719 138.586 18.3235 138.285 15.871C138.228 15.4635 138.05 15.129 137.754 14.8745C137.444 14.6086 137.059 14.5 136.664 14.5583L136.005 14.6191C135.532 14.6764 135.169 14.8615 134.925 15.169C134.678 15.4809 134.58 15.8831 134.636 16.3601C134.845 18.3001 134.845 20.088 134.637 21.67C134.36 23.656 133.701 25.3267 132.681 26.6351C131.646 27.9634 130.237 29.1258 128.47 30.105C128.134 30.3152 128.039 30.5741 128.019 30.7548C127.998 30.9364 128.033 31.2135 128.301 31.4828L129.633 32.945C129.839 33.2099 130.105 33.3472 130.39 33.3472C130.576 33.3472 130.77 33.289 130.96 33.1709C132.959 31.899 134.597 30.4055 135.83 28.7349C137.077 27.0469 137.902 24.9731 138.286 22.5649L138.285 22.5631Z" fill="#6EC3EE"/>
<path d="M154.725 23.1032C154.675 22.8034 154.636 22.5671 154.63 22.5428L154.626 22.4768C154.569 22.0163 154.339 21.8382 154.155 21.7696C153.972 21.7001 153.681 21.6853 153.357 21.9859C152.881 22.3899 152.341 22.8026 151.756 23.2135C151.163 23.6288 150.543 24.0353 149.909 24.4237C149.281 24.8086 148.637 25.1821 147.997 25.5349C147.357 25.8876 146.755 26.2116 146.198 26.5027L145.497 26.8571C145.267 26.9718 145.048 27.0882 144.837 27.2038C144.58 27.3011 144.483 27.3045 144.472 27.3045C144.341 27.3045 144.207 27.3045 144.207 26.8024V21.3925L144.265 10.3808L144.263 9.53031C144.3 8.98819 144.081 8.64416 143.889 8.44782C143.624 8.18284 143.268 8.04297 142.86 8.04297H141.981C141.503 8.04297 141.118 8.19327 140.838 8.49039C140.567 8.77969 140.431 9.16629 140.432 9.67452C140.451 9.97946 140.459 10.3035 140.459 10.6476C140.459 11.0098 140.469 11.4034 140.488 11.8004V26.9709L140.431 30.2575C140.395 30.6024 140.464 31.0924 140.984 31.5407L141.656 32.0724C141.927 32.2904 142.232 32.3999 142.544 32.3999C142.743 32.3999 142.946 32.3556 143.145 32.2661C143.779 32.0063 144.568 31.6423 145.484 31.1888C146.196 30.85 146.965 30.4643 147.771 30.042C148.589 29.6137 149.404 29.1672 150.189 28.7154C150.981 28.2619 151.768 27.778 152.529 27.2793C153.289 26.7815 153.979 26.2829 154.577 25.7998C154.749 25.6617 154.878 25.4801 154.96 25.2638C155.028 25.084 155.045 25.0414 154.724 23.1032H154.725Z" fill="#6EC3EE"/>
</svg>
