<svg width="180" height="180" viewBox="0 0 180 180" fill="none" xmlns="http://www.w3.org/2000/svg">
<path d="M37.003 69.8349C46.7403 79.5796 61.0689 81.5138 73.008 76.3577C76.6706 74.7743 78.403 74.1442 80.9565 74.9923L88.7298 77.6179C89.1404 77.757 89.5923 77.6505 89.899 77.3448C90.2044 77.0392 90.3095 76.5857 90.1706 76.1748L87.5469 68.3968C86.7008 65.8413 87.3316 64.1051 88.9113 60.4409C94.0647 48.4927 92.1308 34.1518 82.3935 24.4084C69.8586 11.8639 49.5354 11.8639 37.0017 24.4084C24.4656 36.9541 24.4656 57.2917 37.0017 69.8362L37.003 69.8349Z" fill="#6EC3EE"/>
<path fill-rule="evenodd" clip-rule="evenodd" d="M52.712 28.0234C59.6959 28.0234 65.3575 33.6851 65.3575 40.669C65.3575 41.9465 65.1681 43.1797 64.8158 44.3422L78.0031 57.5298C80.3311 59.8578 80.3311 63.6322 78.0031 65.9601C75.6751 68.2881 71.9006 68.2881 69.5728 65.9601L56.3852 52.7728C55.2227 53.1251 53.9895 53.3146 52.712 53.3146C45.7281 53.3146 40.0664 47.6529 40.0664 40.669C40.0664 39.3213 40.2772 38.0227 40.6678 36.8047L46.6495 42.7766L52.5785 40.802L52.8433 40.5372L54.8195 34.6138L48.8309 28.6303C50.0537 28.2363 51.358 28.0234 52.712 28.0234Z" fill="white"/>
<g filter="url(#filter0_d_2095_29009)">
<path fill-rule="evenodd" clip-rule="evenodd" d="M151.785 142.055C150.925 138.841 149.826 135.69 148.444 132.663C143.934 122.787 136.416 115.029 128.666 107.559C137.381 104.456 143.874 96.8837 144.704 87.5373C145.865 74.4729 135.524 62.8629 121.63 61.6265C107.734 60.3913 95.5108 69.9945 94.3517 83.0589C93.4955 92.6984 98.903 101.54 107.377 106.013C99.6779 111.131 92.0748 116.467 86.0001 123.363C82.703 127.106 78.9879 131.838 77.646 136.716C75.3265 145.14 85.1802 148.326 90.8368 151.54C94.711 153.741 96.5523 158.144 100.215 160.602C107.832 165.712 120.176 165.759 128.808 163.811C133.137 162.834 136.264 159.64 139.668 157.024C143.539 154.053 150.067 152.477 152.001 147.56C152.73 145.706 152.283 143.901 151.789 142.053L151.785 142.055Z" fill="white"/>
<path fill-rule="evenodd" clip-rule="evenodd" d="M123.043 108.562C122.734 108.057 122.177 107.757 121.586 107.774C119.237 107.846 115.948 107.945 113.688 108.012C112.154 106.349 109.924 103.93 108.329 102.2C107.927 101.764 107.324 101.577 106.747 101.71C106.17 101.843 105.708 102.274 105.536 102.841C104.986 104.66 104.273 107.015 103.749 108.746C103.589 109.274 103.703 109.846 104.052 110.273C104.401 110.699 104.939 110.924 105.488 110.871C107.594 110.667 110.625 110.372 112.785 110.163C114.148 111.854 116.059 114.226 117.387 115.876C117.732 116.305 118.269 116.533 118.817 116.484C119.366 116.435 119.854 116.116 120.119 115.632C120.988 114.047 122.17 111.888 123.082 110.222C123.366 109.702 123.351 109.07 123.042 108.565L123.043 108.562Z" fill="#E4A195"/>
<path d="M113.285 89.0506C113.517 89.0506 113.751 88.9954 113.951 88.8476C114.197 88.666 114.224 88.4468 114.216 88.3303C114.194 87.9307 113.749 87.6463 113.613 87.5686C113.537 87.526 113.466 87.4797 113.404 87.4308C117.148 84.9317 117.911 82.2334 118.717 79.3835C119.218 77.6109 118.984 75.7833 118.089 74.4955C117.57 73.7476 116.88 73.2866 116.196 73.2315C114.572 73.1012 112.606 73.6311 110.467 78.5855C109.218 81.478 109.145 84.3129 110.278 87.0776C109.307 87.4058 108.488 87.3444 107.844 86.8934C106.842 86.1932 106.399 84.6398 106.41 83.4924C106.424 82.1445 106.664 81.3991 106.675 81.369C106.731 81.1974 106.68 81.012 106.542 80.8842C106.368 80.7251 106.096 80.6913 105.848 80.7965C105.419 80.9794 105.12 81.5068 105.102 81.5419C105.071 81.5895 104.326 82.7219 104.625 84.8064C104.945 87.0412 106.537 88.7612 108.497 88.9929C110.088 89.1833 111.151 88.6234 111.554 88.3591C111.773 88.4756 112.138 88.6723 112.27 88.7537C112.486 88.8865 112.883 89.0506 113.285 89.0506ZM112.093 86.3097C112.085 86.2884 112.071 86.252 112.053 86.1894C112.037 86.1518 110.495 82.4238 112.713 78.0394C114.126 75.2458 115.178 74.855 115.743 74.855C115.885 74.855 115.997 74.8801 116.076 74.8976C116.247 74.9352 116.436 75.1093 116.595 75.3761C117.048 76.139 117.311 77.7249 116.687 79.8921C115.772 83.0714 114.16 84.7237 112.853 85.8123C112.669 85.9702 112.434 86.123 112.147 86.2658C112.13 86.2746 112.097 86.2909 112.093 86.3109V86.3097Z" fill="#80B3D0"/>
<path d="M124.32 89.0506C124.552 89.0506 124.786 88.9954 124.986 88.8476C125.233 88.666 125.259 88.4468 125.251 88.3303C125.229 87.9307 124.784 87.6463 124.648 87.5686C124.572 87.526 124.502 87.4797 124.439 87.4308C128.183 84.9317 128.947 82.2334 129.753 79.3835C130.253 77.6109 130.019 75.7833 129.124 74.4955C128.605 73.7476 127.915 73.2866 127.232 73.2315C125.607 73.1012 123.642 73.6311 121.502 78.5855C120.253 81.478 120.181 84.3129 121.313 87.0776C120.342 87.4058 119.523 87.3444 118.879 86.8934C117.877 86.1932 117.434 84.6398 117.446 83.4924C117.459 82.1445 117.7 81.3991 117.71 81.369C117.766 81.1974 117.715 81.012 117.577 80.8842C117.403 80.7251 117.131 80.6913 116.884 80.7965C116.454 80.9794 116.155 81.5068 116.137 81.5419C116.106 81.5895 115.361 82.7219 115.661 84.8064C115.98 87.0412 117.572 88.7612 119.532 88.9929C121.123 89.1833 122.186 88.6234 122.589 88.3591C122.808 88.4756 123.174 88.6723 123.305 88.7537C123.521 88.8865 123.918 89.0506 124.32 89.0506ZM123.128 86.3097C123.12 86.2884 123.106 86.252 123.088 86.1894C123.072 86.1518 121.53 82.4238 123.748 78.0394C125.161 75.2458 126.213 74.855 126.779 74.855C126.92 74.855 127.033 74.8801 127.111 74.8976C127.282 74.9352 127.471 75.1093 127.63 75.3761C128.083 76.139 128.346 77.7249 127.722 79.8921C126.807 83.0714 125.195 84.7237 123.888 85.8123C123.704 85.9702 123.469 86.123 123.182 86.2658C123.165 86.2746 123.132 86.2909 123.128 86.3109V86.3097Z" fill="#80B3D0"/>
<ellipse cx="117.98" cy="96.7445" rx="2.41968" ry="3.87148" fill="#80B3D0"/>
<path d="M133.695 49.6346L121.47 47.3502C115.772 46.2854 110.428 49.4071 109.512 54.3082L108.055 62.106L140.893 68.2422L142.35 60.4444C143.25 55.5403 139.378 50.6964 133.695 49.6346Z" fill="#F1CC34"/>
<path d="M130.521 46.3421L125.635 45.429C124.225 45.1655 122.782 45.3959 121.625 46.0695C120.467 46.7431 119.689 47.8048 119.462 49.0209L116.711 63.7379L132.215 66.635L134.965 51.918C135.437 49.3919 133.45 46.8894 130.521 46.3421Z" fill="#F9D74B"/>
<path d="M129.893 55.6157L128.349 55.3272L128.62 53.8745C128.712 53.386 128.593 52.879 128.29 52.4649C127.988 52.0509 127.526 51.7637 127.007 51.6667C126.487 51.5697 125.953 51.6707 125.521 51.9475C125.09 52.2243 124.796 52.6543 124.705 53.1428L124.433 54.5955L122.889 54.3069C122.37 54.2099 121.836 54.3109 121.404 54.5878C120.972 54.8646 120.678 55.2946 120.587 55.7831C120.496 56.2716 120.614 56.7787 120.917 57.1927C121.22 57.6068 121.681 57.8939 122.201 57.9909L123.745 58.2794L123.473 59.7321C123.382 60.2206 123.501 60.7277 123.803 61.1417C124.106 61.5558 124.568 61.8429 125.087 61.9399C125.606 62.0369 126.14 61.9359 126.572 61.6591C127.004 61.3823 127.298 60.9523 127.389 60.4638L127.66 59.0111L129.204 59.2997C129.724 59.3967 130.258 59.2957 130.69 59.0189C131.121 58.742 131.415 58.312 131.506 57.8235C131.598 57.335 131.479 56.8279 131.176 56.4139C130.874 55.9998 130.412 55.7127 129.893 55.6157Z" fill="#36B24F"/>
<path d="M141.227 66.897L108.198 60.7252C106.367 60.3831 104.63 61.394 104.335 62.9728C104.04 64.5516 105.295 66.1217 107.126 66.4637L140.154 72.6356C141.985 72.9776 143.722 71.9668 144.017 70.388C144.315 68.7955 143.073 67.2421 141.227 66.897Z" fill="#F9D74B"/>
</g>
<defs>
<filter id="filter0_d_2095_29009" x="67.2988" y="35.3223" width="95.0859" height="139.678" filterUnits="userSpaceOnUse" color-interpolation-filters="sRGB">
<feFlood flood-opacity="0" result="BackgroundImageFix"/>
<feColorMatrix in="SourceAlpha" type="matrix" values="0 0 0 0 0 0 0 0 0 0 0 0 0 0 0 0 0 0 127 0" result="hardAlpha"/>
<feOffset/>
<feGaussianBlur stdDeviation="5"/>
<feComposite in2="hardAlpha" operator="out"/>
<feColorMatrix type="matrix" values="0 0 0 0 0 0 0 0 0 0 0 0 0 0 0 0 0 0 0.25 0"/>
<feBlend mode="normal" in2="BackgroundImageFix" result="effect1_dropShadow_2095_29009"/>
<feBlend mode="normal" in="SourceGraphic" in2="effect1_dropShadow_2095_29009" result="shape"/>
</filter>
</defs>
</svg>
