<svg width="90" height="50" viewBox="0 0 90 50" fill="none" xmlns="http://www.w3.org/2000/svg">
<rect width="90" height="50" fill="#C1C1C1"/>
<path d="M23.5 10V40H66.5V10H23.5ZM29.5069 17.6665H27.5276C27.1736 17.6665 26.8866 17.3842 26.8866 17.036V13.4853C26.8866 13.1371 27.1736 12.8548 27.5276 12.8548H29.5068C29.8608 12.8548 30.1477 13.1371 30.1477 13.4853V17.036C30.1477 17.3842 29.8608 17.6665 29.5069 17.6665ZM27.5276 22.178H29.5068C29.8608 22.178 30.1477 22.4603 30.1477 22.8086V26.3592C30.1477 26.7075 29.8608 26.9898 29.5068 26.9898H27.5276C27.1736 26.9898 26.8866 26.7075 26.8866 26.3592V22.8086C26.8866 22.4603 27.1736 22.178 27.5276 22.178ZM27.5276 32.3334H29.5068C29.8608 32.3334 30.1477 32.6158 30.1477 32.964V36.5147C30.1477 36.8629 29.8608 37.1452 29.5068 37.1452H27.5276C27.1736 37.1452 26.8866 36.8629 26.8866 36.5147V32.964C26.8866 32.6158 27.1736 32.3334 27.5276 32.3334ZM40.2114 30.8543V19.1457C40.2114 18.6603 40.7454 18.3569 41.1727 18.5997L51.4797 24.4539C51.907 24.6966 51.907 25.3034 51.4797 25.5461L41.1728 31.4003C40.7455 31.643 40.2114 31.3396 40.2114 30.8543ZM62.4722 17.6665H60.4931C60.1391 17.6665 59.852 17.3842 59.852 17.036V13.4853C59.852 13.1371 60.1391 12.8548 60.4931 12.8548H62.4722C62.8262 12.8548 63.1131 13.1371 63.1131 13.4853V17.036C63.1131 17.3842 62.8262 17.6665 62.4722 17.6665ZM60.4931 22.178H62.4722C62.8262 22.178 63.1131 22.4603 63.1131 22.8086V26.3592C63.1131 26.7075 62.8262 26.9898 62.4722 26.9898H60.4931C60.1391 26.9898 59.852 26.7075 59.852 26.3592V22.8086C59.8521 22.4603 60.1392 22.178 60.4931 22.178ZM60.4931 32.3334H62.4722C62.8262 32.3334 63.1131 32.6158 63.1131 32.964V36.5147C63.1131 36.8629 62.8262 37.1452 62.4722 37.1452H60.4931C60.1391 37.1452 59.852 36.8629 59.852 36.5147V32.964C59.8521 32.6158 60.1392 32.3334 60.4931 32.3334Z" fill="#EEEEEE"/>
</svg>
